<mxfile host="65bd71144e">
    <diagram id="vxJT3b-RhDILSu0iPSrk" name="概要図">
        <mxGraphModel dx="1386" dy="797" grid="1" gridSize="10" guides="1" tooltips="1" connect="1" arrows="1" fold="1" page="1" pageScale="1" pageWidth="1169" pageHeight="827" math="0" shadow="0">
            <root>
                <mxCell id="0"/>
                <mxCell id="1" parent="0"/>
                <mxCell id="69" value="" style="verticalLabelPosition=bottom;verticalAlign=top;html=1;shape=mxgraph.basic.rect;fillColor2=none;strokeWidth=1;size=20;indent=5;dashed=1;strokeColor=none;" parent="1" vertex="1">
                    <mxGeometry x="20" y="100" width="1030" height="410" as="geometry"/>
                </mxCell>
                <mxCell id="3" value="" style="verticalLabelPosition=bottom;verticalAlign=top;html=1;shape=mxgraph.basic.rect;fillColor2=none;strokeWidth=1;size=20;indent=5;dashed=1;fillColor=#d5e8d4;strokeColor=#82b366;" parent="1" vertex="1">
                    <mxGeometry x="199" y="110" width="221" height="200" as="geometry"/>
                </mxCell>
                <mxCell id="4" value="Infrastructure" style="text;html=1;strokeColor=none;fillColor=none;align=center;verticalAlign=middle;whiteSpace=wrap;rounded=0;dashed=1;container=0;fontColor=#21781B;labelBackgroundColor=none;" parent="1" vertex="1">
                    <mxGeometry x="279.5" y="110" width="60" height="30" as="geometry"/>
                </mxCell>
                <mxCell id="2" value="DataStore" style="html=1;" parent="1" vertex="1">
                    <mxGeometry x="216.5" y="260" width="85" height="30" as="geometry"/>
                </mxCell>
                <mxCell id="6" value="Network" style="html=1;" parent="1" vertex="1">
                    <mxGeometry x="216.5" y="153.25" width="85" height="30" as="geometry"/>
                </mxCell>
                <mxCell id="7" value="Device" style="html=1;" parent="1" vertex="1">
                    <mxGeometry x="320" y="195" width="85" height="30" as="geometry"/>
                </mxCell>
                <mxCell id="9" value="" style="aspect=fixed;perimeter=ellipsePerimeter;html=1;align=center;shadow=0;dashed=0;spacingTop=3;image;image=img/lib/active_directory/modem.svg;" parent="1" vertex="1">
                    <mxGeometry x="100" y="153.25" width="50" height="41.5" as="geometry"/>
                </mxCell>
                <mxCell id="23" style="edgeStyle=none;html=1;exitX=1;exitY=0.25;exitDx=0;exitDy=0;entryX=0;entryY=0.5;entryDx=0;entryDy=0;" parent="1" source="10" target="12" edge="1">
                    <mxGeometry relative="1" as="geometry"/>
                </mxCell>
                <mxCell id="24" style="edgeStyle=none;html=1;exitX=1;exitY=0.75;exitDx=0;exitDy=0;entryX=0;entryY=0.5;entryDx=0;entryDy=0;" parent="1" source="10" target="11" edge="1">
                    <mxGeometry relative="1" as="geometry"/>
                </mxCell>
                <mxCell id="10" value="" style="aspect=fixed;perimeter=ellipsePerimeter;html=1;align=center;shadow=0;dashed=0;spacingTop=3;image;image=img/lib/active_directory/laptop_client.svg;" parent="1" vertex="1">
                    <mxGeometry x="30" y="340" width="45" height="50" as="geometry"/>
                </mxCell>
                <mxCell id="11" value="" style="aspect=fixed;perimeter=ellipsePerimeter;html=1;align=center;shadow=0;dashed=0;spacingTop=3;image;image=img/lib/active_directory/home_page.svg;" parent="1" vertex="1">
                    <mxGeometry x="115" y="380" width="50" height="45" as="geometry"/>
                </mxCell>
                <mxCell id="12" value="" style="aspect=fixed;perimeter=ellipsePerimeter;html=1;align=center;shadow=0;dashed=0;spacingTop=3;image;image=img/lib/active_directory/databases.svg;" parent="1" vertex="1">
                    <mxGeometry x="105" y="310" width="50" height="49" as="geometry"/>
                </mxCell>
                <mxCell id="13" value="" style="verticalLabelPosition=bottom;verticalAlign=top;html=1;shape=mxgraph.basic.rect;fillColor2=none;strokeWidth=1;size=20;indent=5;dashed=1;fillColor=#d5e8d4;strokeColor=#82b366;" parent="1" vertex="1">
                    <mxGeometry x="199" y="330" width="221" height="170" as="geometry"/>
                </mxCell>
                <mxCell id="14" value="Application" style="text;html=1;strokeColor=none;fillColor=none;align=center;verticalAlign=middle;whiteSpace=wrap;rounded=0;dashed=1;container=0;fontColor=#21781B;labelBackgroundColor=none;" parent="1" vertex="1">
                    <mxGeometry x="279.5" y="330" width="60" height="30" as="geometry"/>
                </mxCell>
                <mxCell id="16" value="XxxView" style="html=1;" parent="1" vertex="1">
                    <mxGeometry x="216.5" y="360" width="85" height="30" as="geometry"/>
                </mxCell>
                <mxCell id="17" value="XxxViewModel" style="html=1;" parent="1" vertex="1">
                    <mxGeometry x="260" y="410" width="121" height="30" as="geometry"/>
                </mxCell>
                <mxCell id="18" value="XxxModel" style="html=1;" parent="1" vertex="1">
                    <mxGeometry x="320" y="455" width="85" height="30" as="geometry"/>
                </mxCell>
                <mxCell id="19" value="target device" style="text;html=1;strokeColor=none;fillColor=none;align=center;verticalAlign=middle;whiteSpace=wrap;rounded=0;dashed=1;container=0;" parent="1" vertex="1">
                    <mxGeometry x="80" y="194.75" width="75" height="30" as="geometry"/>
                </mxCell>
                <mxCell id="20" value="strage&lt;span style=&quot;color: rgba(0, 0, 0, 0); font-family: monospace; font-size: 0px; text-align: start;&quot;&gt;%3CmxGraphModel%3E%3Croot%3E%3CmxCell%20id%3D%220%22%2F%3E%3CmxCell%20id%3D%221%22%20parent%3D%220%22%2F%3E%3CmxCell%20id%3D%222%22%20value%3D%22target%20device%22%20style%3D%22text%3Bhtml%3D1%3BstrokeColor%3Dnone%3BfillColor%3Dnone%3Balign%3Dcenter%3BverticalAlign%3Dmiddle%3BwhiteSpace%3Dwrap%3Brounded%3D0%3Bdashed%3D1%3Bcontainer%3D0%3B%22%20vertex%3D%221%22%20parent%3D%221%22%3E%3CmxGeometry%20x%3D%2280%22%20y%3D%22194.75%22%20width%3D%2275%22%20height%3D%2230%22%20as%3D%22geometry%22%2F%3E%3C%2FmxCell%3E%3C%2Froot%3E%3C%2FmxGraphModel%3E&lt;/span&gt;" style="text;html=1;strokeColor=none;fillColor=none;align=center;verticalAlign=middle;whiteSpace=wrap;rounded=0;dashed=1;container=0;" parent="1" vertex="1">
                    <mxGeometry x="92.5" y="280" width="75" height="30" as="geometry"/>
                </mxCell>
                <mxCell id="21" value="GUI" style="text;html=1;strokeColor=none;fillColor=none;align=center;verticalAlign=middle;whiteSpace=wrap;rounded=0;dashed=1;container=0;" parent="1" vertex="1">
                    <mxGeometry x="92.5" y="425" width="75" height="30" as="geometry"/>
                </mxCell>
                <mxCell id="25" value="" style="verticalLabelPosition=bottom;verticalAlign=top;html=1;shape=mxgraph.basic.rect;fillColor2=none;strokeWidth=1;size=20;indent=5;dashed=1;fillColor=#d5e8d4;strokeColor=#82b366;" parent="1" vertex="1">
                    <mxGeometry x="430" y="109.75" width="170" height="390.25" as="geometry"/>
                </mxCell>
                <mxCell id="26" value="Usecase" style="text;html=1;strokeColor=none;fillColor=none;align=center;verticalAlign=middle;whiteSpace=wrap;rounded=0;dashed=1;container=0;fontColor=#21781B;labelBackgroundColor=none;" parent="1" vertex="1">
                    <mxGeometry x="485" y="109.75" width="60" height="30" as="geometry"/>
                </mxCell>
                <mxCell id="27" value="XxxViewUsecase" style="html=1;" parent="1" vertex="1">
                    <mxGeometry x="447.75" y="400" width="134.5" height="30" as="geometry"/>
                </mxCell>
                <mxCell id="28" value="GetUsecase&lt;br&gt;or Post&lt;br&gt;or Notify" style="html=1;" parent="1" vertex="1">
                    <mxGeometry x="472.5" y="143.38" width="85" height="61.25" as="geometry"/>
                </mxCell>
                <mxCell id="29" value="SaveUsecase&lt;br&gt;or Open" style="html=1;" parent="1" vertex="1">
                    <mxGeometry x="472.5" y="260" width="85" height="50" as="geometry"/>
                </mxCell>
                <mxCell id="30" value="" style="verticalLabelPosition=bottom;verticalAlign=top;html=1;shape=mxgraph.basic.rect;fillColor2=none;strokeWidth=1;size=20;indent=5;dashed=1;fillColor=#d5e8d4;strokeColor=#82b366;" parent="1" vertex="1">
                    <mxGeometry x="609" y="110" width="170" height="390.25" as="geometry"/>
                </mxCell>
                <mxCell id="31" value="Repository" style="text;html=1;strokeColor=none;fillColor=none;align=center;verticalAlign=middle;whiteSpace=wrap;rounded=0;dashed=1;container=0;fontColor=#21781B;labelBackgroundColor=none;" parent="1" vertex="1">
                    <mxGeometry x="664" y="110" width="60" height="30" as="geometry"/>
                </mxCell>
                <mxCell id="32" value="XxxRepository" style="html=1;" parent="1" vertex="1">
                    <mxGeometry x="626.75" y="360" width="134.5" height="30" as="geometry"/>
                </mxCell>
                <mxCell id="36" value="AaaaRepository" style="html=1;" parent="1" vertex="1">
                    <mxGeometry x="626.75" y="195" width="134.5" height="30" as="geometry"/>
                </mxCell>
                <mxCell id="37" value="" style="verticalLabelPosition=bottom;verticalAlign=top;html=1;shape=mxgraph.basic.rect;fillColor2=none;strokeWidth=1;size=20;indent=5;dashed=1;fillColor=#d5e8d4;strokeColor=#82b366;" parent="1" vertex="1">
                    <mxGeometry x="790" y="109.88" width="250" height="390.25" as="geometry"/>
                </mxCell>
                <mxCell id="38" value="Entity" style="text;html=1;strokeColor=none;fillColor=none;align=center;verticalAlign=middle;whiteSpace=wrap;rounded=0;dashed=1;container=0;fontColor=#21781B;labelBackgroundColor=none;" parent="1" vertex="1">
                    <mxGeometry x="885" y="109.75" width="60" height="30" as="geometry"/>
                </mxCell>
                <mxCell id="39" value="XxxEntity" style="html=1;" parent="1" vertex="1">
                    <mxGeometry x="807.75" y="360" width="134.5" height="30" as="geometry"/>
                </mxCell>
                <mxCell id="40" value="AaaaEntity" style="html=1;" parent="1" vertex="1">
                    <mxGeometry x="807.75" y="194.88" width="134.5" height="30" as="geometry"/>
                </mxCell>
                <mxCell id="41" value="XxxValueObject" style="html=1;" parent="1" vertex="1">
                    <mxGeometry x="910" y="420" width="105" height="30" as="geometry"/>
                </mxCell>
                <mxCell id="42" value="AaaValueObject" style="html=1;" parent="1" vertex="1">
                    <mxGeometry x="905" y="250" width="105" height="30" as="geometry"/>
                </mxCell>
                <mxCell id="43" value="BbbValueObject" style="html=1;" parent="1" vertex="1">
                    <mxGeometry x="840" y="300" width="105" height="30" as="geometry"/>
                </mxCell>
                <mxCell id="45" value="" style="endArrow=diamondThin;endFill=0;endSize=24;html=1;fontColor=#21781B;entryX=1;entryY=0.5;entryDx=0;entryDy=0;exitX=0.75;exitY=0;exitDx=0;exitDy=0;edgeStyle=orthogonalEdgeStyle;" parent="1" source="42" target="40" edge="1">
                    <mxGeometry width="160" relative="1" as="geometry">
                        <mxPoint x="890" y="173.5" as="sourcePoint"/>
                        <mxPoint x="1050" y="173.5" as="targetPoint"/>
                    </mxGeometry>
                </mxCell>
                <mxCell id="46" value="" style="endArrow=diamondThin;endFill=0;endSize=24;html=1;fontColor=#21781B;entryX=0.5;entryY=1;entryDx=0;entryDy=0;exitX=0.5;exitY=0;exitDx=0;exitDy=0;edgeStyle=orthogonalEdgeStyle;" parent="1" source="43" target="40" edge="1">
                    <mxGeometry width="160" relative="1" as="geometry">
                        <mxPoint x="581.5" y="310.12" as="sourcePoint"/>
                        <mxPoint x="540" y="270" as="targetPoint"/>
                    </mxGeometry>
                </mxCell>
                <mxCell id="47" value="" style="endArrow=diamondThin;endFill=0;endSize=24;html=1;fontColor=#21781B;entryX=1;entryY=0.5;entryDx=0;entryDy=0;exitX=0.75;exitY=0;exitDx=0;exitDy=0;edgeStyle=orthogonalEdgeStyle;" parent="1" source="41" target="39" edge="1">
                    <mxGeometry width="160" relative="1" as="geometry">
                        <mxPoint x="581.5" y="310.12" as="sourcePoint"/>
                        <mxPoint x="540" y="270" as="targetPoint"/>
                    </mxGeometry>
                </mxCell>
                <mxCell id="48" value="" style="endArrow=diamondThin;endFill=0;endSize=24;html=1;fontColor=#21781B;entryX=1;entryY=0.5;entryDx=0;entryDy=0;exitX=0;exitY=0.5;exitDx=0;exitDy=0;" parent="1" source="40" target="36" edge="1">
                    <mxGeometry width="160" relative="1" as="geometry">
                        <mxPoint x="741.5" y="330.12" as="sourcePoint"/>
                        <mxPoint x="700" y="290" as="targetPoint"/>
                    </mxGeometry>
                </mxCell>
                <mxCell id="49" value="" style="endArrow=diamondThin;endFill=0;endSize=24;html=1;fontColor=#21781B;entryX=1;entryY=0.5;entryDx=0;entryDy=0;exitX=0;exitY=0.5;exitDx=0;exitDy=0;" parent="1" source="39" target="32" edge="1">
                    <mxGeometry width="160" relative="1" as="geometry">
                        <mxPoint x="817.75" y="219.88" as="sourcePoint"/>
                        <mxPoint x="771.25" y="220" as="targetPoint"/>
                    </mxGeometry>
                </mxCell>
                <mxCell id="50" value="" style="endArrow=diamondThin;endFill=0;endSize=24;html=1;fontColor=#21781B;entryX=1;entryY=0.25;entryDx=0;entryDy=0;exitX=0.25;exitY=0;exitDx=0;exitDy=0;edgeStyle=orthogonalEdgeStyle;" parent="1" source="36" target="28" edge="1">
                    <mxGeometry width="160" relative="1" as="geometry">
                        <mxPoint x="581.5" y="310.12" as="sourcePoint"/>
                        <mxPoint x="540" y="270" as="targetPoint"/>
                    </mxGeometry>
                </mxCell>
                <mxCell id="51" value="" style="endArrow=diamondThin;endFill=0;endSize=24;html=1;fontColor=#21781B;entryX=1;entryY=0.75;entryDx=0;entryDy=0;exitX=0;exitY=0.25;exitDx=0;exitDy=0;edgeStyle=orthogonalEdgeStyle;" parent="1" source="32" target="29" edge="1">
                    <mxGeometry width="160" relative="1" as="geometry">
                        <mxPoint x="670.375" y="205" as="sourcePoint"/>
                        <mxPoint x="567.5" y="168.6925" as="targetPoint"/>
                    </mxGeometry>
                </mxCell>
                <mxCell id="52" value="" style="endArrow=diamondThin;endFill=0;endSize=24;html=1;fontColor=#21781B;entryX=1;entryY=0.5;entryDx=0;entryDy=0;exitX=0.25;exitY=1;exitDx=0;exitDy=0;edgeStyle=orthogonalEdgeStyle;" parent="1" source="32" target="27" edge="1">
                    <mxGeometry width="160" relative="1" as="geometry">
                        <mxPoint x="670.375" y="370" as="sourcePoint"/>
                        <mxPoint x="567.5" y="307.5" as="targetPoint"/>
                    </mxGeometry>
                </mxCell>
                <mxCell id="53" value="" style="endArrow=diamondThin;endFill=0;endSize=24;html=1;fontColor=#21781B;entryX=0.75;entryY=1;entryDx=0;entryDy=0;exitX=0.25;exitY=0;exitDx=0;exitDy=0;edgeStyle=orthogonalEdgeStyle;" parent="1" source="32" target="28" edge="1">
                    <mxGeometry width="160" relative="1" as="geometry">
                        <mxPoint x="581.5" y="310.12" as="sourcePoint"/>
                        <mxPoint x="540" y="270" as="targetPoint"/>
                        <Array as="points">
                            <mxPoint x="660" y="250"/>
                            <mxPoint x="536" y="250"/>
                        </Array>
                    </mxGeometry>
                </mxCell>
                <mxCell id="54" value="" style="endArrow=diamondThin;endFill=0;endSize=24;html=1;fontColor=#21781B;entryX=1;entryY=0.25;entryDx=0;entryDy=0;exitX=0.5;exitY=1;exitDx=0;exitDy=0;edgeStyle=orthogonalEdgeStyle;" parent="1" source="36" target="29" edge="1">
                    <mxGeometry width="160" relative="1" as="geometry">
                        <mxPoint x="581.5" y="310.12" as="sourcePoint"/>
                        <mxPoint x="540" y="270" as="targetPoint"/>
                    </mxGeometry>
                </mxCell>
                <mxCell id="56" value="" style="endArrow=open;endFill=1;endSize=12;html=1;fontColor=#21781B;exitX=0.25;exitY=1;exitDx=0;exitDy=0;edgeStyle=orthogonalEdgeStyle;entryX=0;entryY=0.5;entryDx=0;entryDy=0;" parent="1" source="17" target="18" edge="1">
                    <mxGeometry width="160" relative="1" as="geometry">
                        <mxPoint x="150" y="470" as="sourcePoint"/>
                        <mxPoint x="310" y="470" as="targetPoint"/>
                    </mxGeometry>
                </mxCell>
                <mxCell id="57" value="" style="endArrow=open;endFill=1;endSize=12;html=1;fontColor=#21781B;exitX=0.25;exitY=1;exitDx=0;exitDy=0;edgeStyle=orthogonalEdgeStyle;entryX=0;entryY=0.5;entryDx=0;entryDy=0;" parent="1" source="16" target="17" edge="1">
                    <mxGeometry width="160" relative="1" as="geometry">
                        <mxPoint x="280.25" y="450" as="sourcePoint"/>
                        <mxPoint x="300" y="480" as="targetPoint"/>
                    </mxGeometry>
                </mxCell>
                <mxCell id="58" value="" style="endArrow=open;endFill=1;endSize=12;html=1;fontColor=#21781B;edgeStyle=orthogonalEdgeStyle;entryX=1;entryY=0.5;entryDx=0;entryDy=0;exitX=0;exitY=0.5;exitDx=0;exitDy=0;" parent="1" source="29" target="2" edge="1">
                    <mxGeometry width="160" relative="1" as="geometry">
                        <mxPoint x="310.25" y="450" as="sourcePoint"/>
                        <mxPoint x="330" y="480" as="targetPoint"/>
                        <Array as="points"/>
                    </mxGeometry>
                </mxCell>
                <mxCell id="59" value="" style="endArrow=open;endFill=1;endSize=12;html=1;fontColor=#21781B;edgeStyle=orthogonalEdgeStyle;entryX=1;entryY=0.5;entryDx=0;entryDy=0;exitX=0;exitY=0.5;exitDx=0;exitDy=0;" parent="1" source="28" target="7" edge="1">
                    <mxGeometry width="160" relative="1" as="geometry">
                        <mxPoint x="482.5" y="295" as="sourcePoint"/>
                        <mxPoint x="311.5" y="285" as="targetPoint"/>
                        <Array as="points"/>
                    </mxGeometry>
                </mxCell>
                <mxCell id="60" value="" style="endArrow=open;endFill=1;endSize=12;html=1;fontColor=#21781B;edgeStyle=orthogonalEdgeStyle;exitX=0;exitY=0.5;exitDx=0;exitDy=0;entryX=0.5;entryY=1;entryDx=0;entryDy=0;" parent="1" source="7" target="6" edge="1">
                    <mxGeometry width="160" relative="1" as="geometry">
                        <mxPoint x="482.5" y="184.005" as="sourcePoint"/>
                        <mxPoint x="415" y="220" as="targetPoint"/>
                        <Array as="points"/>
                    </mxGeometry>
                </mxCell>
                <mxCell id="62" value="" style="endArrow=open;endFill=1;endSize=12;html=1;fontColor=#21781B;edgeStyle=orthogonalEdgeStyle;exitX=0;exitY=0.5;exitDx=0;exitDy=0;entryX=1;entryY=0;entryDx=0;entryDy=0;" parent="1" source="6" target="9" edge="1">
                    <mxGeometry width="160" relative="1" as="geometry">
                        <mxPoint x="330" y="220" as="sourcePoint"/>
                        <mxPoint x="269" y="193.25" as="targetPoint"/>
                    </mxGeometry>
                </mxCell>
                <mxCell id="64" value="" style="endArrow=open;endFill=1;endSize=12;html=1;fontColor=#21781B;edgeStyle=orthogonalEdgeStyle;exitX=0;exitY=0.5;exitDx=0;exitDy=0;entryX=1;entryY=0.5;entryDx=0;entryDy=0;" parent="1" source="2" target="12" edge="1">
                    <mxGeometry width="160" relative="1" as="geometry">
                        <mxPoint x="226.5" y="178.25" as="sourcePoint"/>
                        <mxPoint x="152.9999770068664" y="169.60001839450683" as="targetPoint"/>
                    </mxGeometry>
                </mxCell>
                <mxCell id="65" value="" style="endArrow=open;endFill=1;endSize=12;html=1;fontColor=#21781B;edgeStyle=orthogonalEdgeStyle;exitX=1;exitY=0.5;exitDx=0;exitDy=0;entryX=0;entryY=0.5;entryDx=0;entryDy=0;" parent="1" source="11" target="16" edge="1">
                    <mxGeometry width="160" relative="1" as="geometry">
                        <mxPoint x="226.5" y="285" as="sourcePoint"/>
                        <mxPoint x="165" y="344.5" as="targetPoint"/>
                    </mxGeometry>
                </mxCell>
                <mxCell id="66" value="" style="endArrow=open;endFill=1;endSize=12;html=1;fontColor=#21781B;edgeStyle=orthogonalEdgeStyle;entryX=0.25;entryY=1;entryDx=0;entryDy=0;exitX=1;exitY=0.25;exitDx=0;exitDy=0;" parent="1" source="18" target="29" edge="1">
                    <mxGeometry width="160" relative="1" as="geometry">
                        <mxPoint x="482.5" y="295" as="sourcePoint"/>
                        <mxPoint x="311.5" y="285" as="targetPoint"/>
                        <Array as="points">
                            <mxPoint x="440" y="463"/>
                            <mxPoint x="440" y="340"/>
                            <mxPoint x="494" y="340"/>
                        </Array>
                    </mxGeometry>
                </mxCell>
                <mxCell id="67" value="" style="endArrow=open;endFill=1;endSize=12;html=1;fontColor=#21781B;edgeStyle=orthogonalEdgeStyle;entryX=0.18;entryY=0.994;entryDx=0;entryDy=0;exitX=0.873;exitY=-0.159;exitDx=0;exitDy=0;exitPerimeter=0;entryPerimeter=0;" parent="1" source="18" target="28" edge="1">
                    <mxGeometry width="160" relative="1" as="geometry">
                        <mxPoint x="415" y="472.5" as="sourcePoint"/>
                        <mxPoint x="503.75" y="320" as="targetPoint"/>
                        <Array as="points">
                            <mxPoint x="393" y="450"/>
                            <mxPoint x="393" y="320"/>
                            <mxPoint x="440" y="320"/>
                            <mxPoint x="440" y="230"/>
                            <mxPoint x="488" y="230"/>
                        </Array>
                    </mxGeometry>
                </mxCell>
                <mxCell id="68" value="" style="endArrow=open;endFill=1;endSize=12;html=1;fontColor=#21781B;edgeStyle=orthogonalEdgeStyle;entryX=0.25;entryY=1;entryDx=0;entryDy=0;exitX=1;exitY=0.75;exitDx=0;exitDy=0;" parent="1" source="18" target="27" edge="1">
                    <mxGeometry width="160" relative="1" as="geometry">
                        <mxPoint x="415" y="472.5" as="sourcePoint"/>
                        <mxPoint x="503.75" y="320" as="targetPoint"/>
                    </mxGeometry>
                </mxCell>
            </root>
        </mxGraphModel>
    </diagram>
    <diagram id="0ROiiAOncyj6y9GTaKI6" name="コンポーネント図">
        <mxGraphModel dx="1387" dy="797" grid="1" gridSize="10" guides="1" tooltips="1" connect="1" arrows="1" fold="1" page="1" pageScale="1" pageWidth="1169" pageHeight="827" math="0" shadow="0">
            <root>
                <mxCell id="0"/>
                <mxCell id="1" parent="0"/>
                <mxCell id="mIlmoF9bP5TnxBC6kT-x-3" value="Entity" style="html=1;dropTarget=0;" vertex="1" parent="1">
                    <mxGeometry x="500" y="519" width="120" height="51" as="geometry"/>
                </mxCell>
                <mxCell id="mIlmoF9bP5TnxBC6kT-x-4" value="" style="shape=module;jettyWidth=8;jettyHeight=4;" vertex="1" parent="mIlmoF9bP5TnxBC6kT-x-3">
                    <mxGeometry x="1" width="20" height="20" relative="1" as="geometry">
                        <mxPoint x="-27" y="7" as="offset"/>
                    </mxGeometry>
                </mxCell>
                <mxCell id="mIlmoF9bP5TnxBC6kT-x-24" style="edgeStyle=none;html=1;" edge="1" parent="1" source="mIlmoF9bP5TnxBC6kT-x-5" target="mIlmoF9bP5TnxBC6kT-x-3">
                    <mxGeometry relative="1" as="geometry"/>
                </mxCell>
                <mxCell id="mIlmoF9bP5TnxBC6kT-x-5" value="Repository&lt;span style=&quot;color: rgba(0, 0, 0, 0); font-family: monospace; font-size: 0px; text-align: start;&quot;&gt;%3CmxGraphModel%3E%3Croot%3E%3CmxCell%20id%3D%220%22%2F%3E%3CmxCell%20id%3D%221%22%20parent%3D%220%22%2F%3E%3CmxCell%20id%3D%222%22%20value%3D%22Entity%22%20style%3D%22html%3D1%3BdropTarget%3D0%3B%22%20vertex%3D%221%22%20parent%3D%221%22%3E%3CmxGeometry%20x%3D%22500%22%20y%3D%22369%22%20width%3D%22120%22%20height%3D%2251%22%20as%3D%22geometry%22%2F%3E%3C%2FmxCell%3E%3CmxCell%20id%3D%223%22%20value%3D%22%22%20style%3D%22shape%3Dmodule%3BjettyWidth%3D8%3BjettyHeight%3D4%3B%22%20vertex%3D%221%22%20parent%3D%222%22%3E%3CmxGeometry%20x%3D%221%22%20width%3D%2220%22%20height%3D%2220%22%20relative%3D%221%22%20as%3D%22geometry%22%3E%3CmxPoint%20x%3D%22-27%22%20y%3D%227%22%20as%3D%22offset%22%2F%3E%3C%2FmxGeometry%3E%3C%2FmxCell%3E%3C%2Froot%3E%3C%2FmxGraphModel%3E&lt;/span&gt;" style="html=1;dropTarget=0;" vertex="1" parent="1">
                    <mxGeometry x="500" y="440" width="120" height="51" as="geometry"/>
                </mxCell>
                <mxCell id="mIlmoF9bP5TnxBC6kT-x-6" value="" style="shape=module;jettyWidth=8;jettyHeight=4;" vertex="1" parent="mIlmoF9bP5TnxBC6kT-x-5">
                    <mxGeometry x="1" width="20" height="20" relative="1" as="geometry">
                        <mxPoint x="-27" y="7" as="offset"/>
                    </mxGeometry>
                </mxCell>
                <mxCell id="mIlmoF9bP5TnxBC6kT-x-23" style="edgeStyle=none;html=1;" edge="1" parent="1" source="mIlmoF9bP5TnxBC6kT-x-7" target="mIlmoF9bP5TnxBC6kT-x-5">
                    <mxGeometry relative="1" as="geometry"/>
                </mxCell>
                <mxCell id="mIlmoF9bP5TnxBC6kT-x-7" value="Usecase" style="html=1;dropTarget=0;" vertex="1" parent="1">
                    <mxGeometry x="500" y="370" width="120" height="51" as="geometry"/>
                </mxCell>
                <mxCell id="mIlmoF9bP5TnxBC6kT-x-8" value="" style="shape=module;jettyWidth=8;jettyHeight=4;" vertex="1" parent="mIlmoF9bP5TnxBC6kT-x-7">
                    <mxGeometry x="1" width="20" height="20" relative="1" as="geometry">
                        <mxPoint x="-27" y="7" as="offset"/>
                    </mxGeometry>
                </mxCell>
                <mxCell id="mIlmoF9bP5TnxBC6kT-x-19" style="edgeStyle=none;html=1;" edge="1" parent="1" source="mIlmoF9bP5TnxBC6kT-x-9" target="mIlmoF9bP5TnxBC6kT-x-7">
                    <mxGeometry relative="1" as="geometry"/>
                </mxCell>
                <mxCell id="mIlmoF9bP5TnxBC6kT-x-32" style="edgeStyle=none;html=1;" edge="1" parent="1" source="mIlmoF9bP5TnxBC6kT-x-9" target="mIlmoF9bP5TnxBC6kT-x-26">
                    <mxGeometry relative="1" as="geometry"/>
                </mxCell>
                <mxCell id="mIlmoF9bP5TnxBC6kT-x-9" value="App" style="html=1;dropTarget=0;" vertex="1" parent="1">
                    <mxGeometry x="380" y="240" width="120" height="51" as="geometry"/>
                </mxCell>
                <mxCell id="mIlmoF9bP5TnxBC6kT-x-10" value="" style="shape=module;jettyWidth=8;jettyHeight=4;" vertex="1" parent="mIlmoF9bP5TnxBC6kT-x-9">
                    <mxGeometry x="1" width="20" height="20" relative="1" as="geometry">
                        <mxPoint x="-27" y="7" as="offset"/>
                    </mxGeometry>
                </mxCell>
                <mxCell id="mIlmoF9bP5TnxBC6kT-x-11" value="Infrastructure" style="shape=folder;fontStyle=1;tabWidth=110;tabHeight=30;tabPosition=left;html=1;boundedLbl=1;labelInHeader=1;container=1;collapsible=0;" vertex="1" parent="1">
                    <mxGeometry x="570" y="160" width="400" height="180" as="geometry"/>
                </mxCell>
                <mxCell id="mIlmoF9bP5TnxBC6kT-x-12" value="" style="html=1;strokeColor=none;resizeWidth=1;resizeHeight=1;fillColor=none;part=1;connectable=0;allowArrows=0;deletable=0;" vertex="1" parent="mIlmoF9bP5TnxBC6kT-x-11">
                    <mxGeometry width="400" height="126" relative="1" as="geometry">
                        <mxPoint y="30" as="offset"/>
                    </mxGeometry>
                </mxCell>
                <mxCell id="mIlmoF9bP5TnxBC6kT-x-17" value="Network" style="html=1;dropTarget=0;" vertex="1" parent="mIlmoF9bP5TnxBC6kT-x-11">
                    <mxGeometry x="240.0000000000001" y="40" width="116.67" height="51" as="geometry"/>
                </mxCell>
                <mxCell id="mIlmoF9bP5TnxBC6kT-x-18" value="" style="shape=module;jettyWidth=8;jettyHeight=4;" vertex="1" parent="mIlmoF9bP5TnxBC6kT-x-17">
                    <mxGeometry x="1" width="20" height="20" relative="1" as="geometry">
                        <mxPoint x="-27" y="7" as="offset"/>
                    </mxGeometry>
                </mxCell>
                <mxCell id="mIlmoF9bP5TnxBC6kT-x-20" style="edgeStyle=none;html=1;" edge="1" parent="mIlmoF9bP5TnxBC6kT-x-11" source="mIlmoF9bP5TnxBC6kT-x-15" target="mIlmoF9bP5TnxBC6kT-x-17">
                    <mxGeometry relative="1" as="geometry"/>
                </mxCell>
                <mxCell id="mIlmoF9bP5TnxBC6kT-x-15" value="Device" style="html=1;dropTarget=0;" vertex="1" parent="mIlmoF9bP5TnxBC6kT-x-11">
                    <mxGeometry x="240.0000000000001" y="110" width="116.67" height="51" as="geometry"/>
                </mxCell>
                <mxCell id="mIlmoF9bP5TnxBC6kT-x-16" value="" style="shape=module;jettyWidth=8;jettyHeight=4;" vertex="1" parent="mIlmoF9bP5TnxBC6kT-x-15">
                    <mxGeometry x="1" width="20" height="20" relative="1" as="geometry">
                        <mxPoint x="-27" y="7" as="offset"/>
                    </mxGeometry>
                </mxCell>
                <mxCell id="mIlmoF9bP5TnxBC6kT-x-13" value="DataStore" style="html=1;dropTarget=0;" vertex="1" parent="mIlmoF9bP5TnxBC6kT-x-11">
                    <mxGeometry x="60" y="80" width="116.67" height="51" as="geometry"/>
                </mxCell>
                <mxCell id="mIlmoF9bP5TnxBC6kT-x-14" value="" style="shape=module;jettyWidth=8;jettyHeight=4;" vertex="1" parent="mIlmoF9bP5TnxBC6kT-x-13">
                    <mxGeometry x="1" width="20" height="20" relative="1" as="geometry">
                        <mxPoint x="-27" y="7" as="offset"/>
                    </mxGeometry>
                </mxCell>
                <mxCell id="mIlmoF9bP5TnxBC6kT-x-21" style="edgeStyle=none;html=1;" edge="1" parent="1" source="mIlmoF9bP5TnxBC6kT-x-13" target="mIlmoF9bP5TnxBC6kT-x-7">
                    <mxGeometry relative="1" as="geometry"/>
                </mxCell>
                <mxCell id="mIlmoF9bP5TnxBC6kT-x-22" style="edgeStyle=none;html=1;" edge="1" parent="1" source="mIlmoF9bP5TnxBC6kT-x-15" target="mIlmoF9bP5TnxBC6kT-x-7">
                    <mxGeometry relative="1" as="geometry"/>
                </mxCell>
                <mxCell id="mIlmoF9bP5TnxBC6kT-x-25" value="" style="aspect=fixed;perimeter=ellipsePerimeter;html=1;align=center;shadow=0;dashed=0;spacingTop=3;image;image=img/lib/active_directory/vista_client.svg;" vertex="1" parent="1">
                    <mxGeometry x="510" y="30" width="38" height="50" as="geometry"/>
                </mxCell>
                <mxCell id="mIlmoF9bP5TnxBC6kT-x-37" style="edgeStyle=none;html=1;endArrow=diamond;endFill=1;" edge="1" parent="1" source="mIlmoF9bP5TnxBC6kT-x-26" target="mIlmoF9bP5TnxBC6kT-x-25">
                    <mxGeometry relative="1" as="geometry"/>
                </mxCell>
                <mxCell id="mIlmoF9bP5TnxBC6kT-x-26" value="" style="aspect=fixed;perimeter=ellipsePerimeter;html=1;align=center;shadow=0;dashed=0;spacingTop=3;image;image=img/lib/active_directory/home_page.svg;" vertex="1" parent="1">
                    <mxGeometry x="420" y="115" width="50" height="45" as="geometry"/>
                </mxCell>
                <mxCell id="mIlmoF9bP5TnxBC6kT-x-38" style="edgeStyle=none;html=1;endArrow=diamond;endFill=1;" edge="1" parent="1" source="mIlmoF9bP5TnxBC6kT-x-27" target="mIlmoF9bP5TnxBC6kT-x-25">
                    <mxGeometry relative="1" as="geometry"/>
                </mxCell>
                <mxCell id="mIlmoF9bP5TnxBC6kT-x-27" value="" style="aspect=fixed;perimeter=ellipsePerimeter;html=1;align=center;shadow=0;dashed=0;spacingTop=3;image;image=img/lib/active_directory/databases.svg;" vertex="1" parent="1">
                    <mxGeometry x="620" y="90" width="50" height="49" as="geometry"/>
                </mxCell>
                <mxCell id="mIlmoF9bP5TnxBC6kT-x-29" value="" style="aspect=fixed;perimeter=ellipsePerimeter;html=1;align=center;shadow=0;dashed=0;spacingTop=3;image;image=img/lib/active_directory/modem.svg;" vertex="1" parent="1">
                    <mxGeometry x="850" y="94" width="50" height="41.5" as="geometry"/>
                </mxCell>
                <mxCell id="mIlmoF9bP5TnxBC6kT-x-33" style="edgeStyle=none;html=1;" edge="1" parent="1" source="mIlmoF9bP5TnxBC6kT-x-13" target="mIlmoF9bP5TnxBC6kT-x-27">
                    <mxGeometry relative="1" as="geometry"/>
                </mxCell>
                <mxCell id="mIlmoF9bP5TnxBC6kT-x-34" style="edgeStyle=none;html=1;" edge="1" parent="1" source="mIlmoF9bP5TnxBC6kT-x-17" target="mIlmoF9bP5TnxBC6kT-x-29">
                    <mxGeometry relative="1" as="geometry"/>
                </mxCell>
            </root>
        </mxGraphModel>
    </diagram>
</mxfile>